<svg version="1.2" xmlns="http://www.w3.org/2000/svg" viewBox="0 0 886 1200" width="886" height="1200">
	<title>university-of-chittagong-seeklogo</title>
	<style>
		.s0 { fill: #000000 } 
		.s1 { fill: none;stroke: #000000;stroke-width: 8.9 } 
		.s2 { fill: none;stroke: #000000;stroke-width: 7.4 } 
		.s3 { fill: #000000;stroke: #000000;stroke-width: 6 } 
		.s4 { fill: none;stroke: #000000;stroke-width: 59.2 } 
		.s5 { fill: #231f20;stroke: #000000;stroke-width: 44.4 } 
		.s6 { fill: none;stroke: #000000;stroke-width: 44.4 } 
		.s7 { fill: none;stroke: #ffffff;stroke-width: 5.6 } 
		.s8 { fill: #ffffff } 
		.s9 { fill: #000000;stroke: #000000;stroke-width: 1.8 } 
	</style>
	<g id="Layer 1">
		<g id="&lt;Group&gt;">
			<path id="&lt;Path&gt;" class="s0" d="m138.2 892.5h611.6c0 0-48.2 226.2-305.9 226.2 0 0-211 31.6-305.7-226.2z"/>
			<g id="&lt;Group&gt;">
				<path id="&lt;Path&gt;" class="s1" d="m495.8 634.4c0-14.3 51.2-25.9 114.4-25.9 63.1 0 114.3 11.6 114.3 25.9 0 14.3-51.2 25.9-114.3 25.9-63.2 0-114.4-11.6-114.4-25.9z"/>
				<path id="&lt;Path&gt;" class="s1" d="m610.2 749.3c-14.3 0-25.8-51.4-25.8-114.9 0-63.5 11.5-114.9 25.8-114.9 14.2 0 25.8 51.4 25.8 114.9 0 63.5-11.6 114.9-25.8 114.9z"/>
				<path id="&lt;Path&gt;" class="s1" d="m591.9 652.7c-44.6-44.8-72.6-89.4-62.6-99.5 10.1-10.1 54.4 18 99.1 62.9 44.6 44.9 72.7 89.4 62.6 99.6-10.1 10.1-54.4-18.1-99.1-63z"/>
				<path id="&lt;Path&gt;" class="s1" d="m591.9 616.1c44.7-44.9 89-73 99.1-62.9 10.1 10.1-18 54.7-62.6 99.5-44.7 44.9-89 73.1-99.1 63-10-10.2 18-54.7 62.6-99.6z"/>
			</g>
			<g id="&lt;Group&gt;">
				<path id="&lt;Path&gt;" class="s2" d="m178.9 712.3v-141.1l99.8 35.2 99.8-35.2v141.1l-99.8 31.6z"/>
				<path id="&lt;Path&gt;" class="s2" d="m278.7 606.4v134.2"/>
			</g>
			<g id="&lt;Group&gt;">
				<path id="&lt;Path&gt;" class="s3" d="m340.3 877h-173.8l86.9-51.4z"/>
				<path id="&lt;Path&gt;" class="s3" d="m532.1 877h-173.7l86.9-51.2z"/>
				<path id="&lt;Path&gt;" class="s3" d="m720.7 877h-173.8l86.9-51.8z"/>
			</g>
			<path id="&lt;Path&gt;" class="s4" d="m444 1124.9c-183.2 0-359.2-151.1-331.6-516 0 0-5.9-125 92.4-409.7l-26.7 91.1c0 0-45.9 109.5 2.1 135.5 0 0 164.5 139.2 214.1-350.6l102.7 0.2c43.5 493.4 211.7 348.5 211.7 348.5 38.8-26-0.7-133.4-0.7-133.4l-30.1-91.3c103.6 284.7 95.8 409.8 95.8 409.8 27.6 364.9-148.5 516.1-331.6 516.1z"/>
			<path id="&lt;Path&gt;" class="s5" d="m128.6 473.9h618.4"/>
			<path id="&lt;Path&gt;" class="s5" d="m117.5 790.8h638.1"/>
			<path id="&lt;Path&gt;" class="s6" d="m446.4 463.8v341.7"/>
			<g id="&lt;Group&gt;">
				<g id="&lt;Group&gt;">
					<path id="&lt;Path&gt;" class="s7" d="m331.2 953.3c-38.8 25.3-72.1 0-72.1 0l36.1-33.4z"/>
					<path id="&lt;Path&gt;" class="s7" d="m406.6 953.1c-38.7 25.3-72.1 0-72.1 0l36.1-33.4z"/>
					<path id="&lt;Path&gt;" class="s7" d="m481.9 952.9c-38.7 25.3-72 0-72 0l36.1-33.4z"/>
					<path id="&lt;Path&gt;" class="s7" d="m557 953.1c-38.8 25.2-72.1 0-72.1 0l36.1-33.5z"/>
					<path id="&lt;Path&gt;" class="s7" d="m632 953.2c-38.8 25.3-72.1 0-72.1 0l36-33.5z"/>
				</g>
				<path id="&lt;Compound Path&gt;" fill-rule="evenodd" class="s8" d="m242.2 979.9c-5.4 8.2 8 17.6 1.2 23.7-5.3 4.6-20.7 5.8-25.6 0.2-1.9-2.1-1-8.7 1-10.5l19.8-17.5-3.4-3.8 0.7-7.5 22.4 25.5-0.5 7.7zm-5.8 4.9l-14 12.4c-0.4 0.4-0.8 1-0.3 1.6 2.5 2.8 12.8 2.7 15.5 0.1l0.6-0.7c-1.6-4.6-2.9-8.5-1.8-13.4z"/>
				<path id="&lt;Compound Path&gt;" class="s8" d="m266.4 1005.3l-13.4 15.4c-0.8 1-1.5 2.6-0.3 3.7 3 2.6 7.9 0.6 10.4-1.5-0.7-2.2-0.1-4.7 1.3-6.3 1.8-2.1 5.7-3.3 8-1.3 3.5 3.1 1.8 7.7-0.8 10.7-3.4 3.9-5.6 3.7-9.5 5.8l0.2-0.3c-0.1-0.1 0-0.3 0.1-0.3 0.7 0.6-2.7 6.4-3.3 7.2-4.5 5.1-9.9 5.3-15 0.8-7.9-6.9-5.2-20.2 0.5-27.7l1.3 3.3c-1.4 6.4-4.9 13.1 1.3 18.5 2 1.8 7.6 4.5 9.8 1.8 0.4-0.3 1-2.1 1.3-2.7-3.1-0.2-6.4-0.3-8.9-2.5-9.5-8.3 9.1-23.6 13.1-28.1l-5.6-4.9-0.3-7.6 22.3 19.7c0.5 0.4 1.7-0.3 2-0.7 1.8-2-8.6-9.4-10.2-10.9-3.8-3.3-8.3-10.1-4.1-14.9 1.4-1.6 3.8-2.5 5.9-2.6l1.6 3.9c-1.2-0.5-3.1-1.1-3.9 0.1l-0.7 0.8c1.5 5 4.9 6.7 8.6 9.9 5.6 4.9 10.2 10.7 4.7 17.8l1.3 1.2 0.4 7.6z"/>
				<path id="&lt;Compound Path&gt;" class="s8" d="m309.8 1037.8l-21.1 32.2-1.7-8c3.1-4.8 6.4-9.6 9.6-14.4 3.1-4.7 5.1-14-0.7-17.8-2.5-1.7-5.2-2.1-8-0.7 1 0.3 1.8 0.8 2.7 1.4 2.8 1.9 5.4 6.1 3.2 9.4-2.6 4.2-9.1 5.5-13.5 6.8l-1.6-7.9c2.1-0.1 11.1-1.4 11.8-2.5 0.5-0.7-0.4-1.8-1-2.1-2.2-1.5-5.5 0-7.9-1.5-2.1-1.4-2-5.4-0.8-7.3 3.5-5.2 11.3-5.3 16.1-2.2 7.6 5.1 7.2 11.9 5.6 19.8 1.9-5.5 4.1-10.4 7.3-15.2l2.4-3.6 1.8 5.2c-0.6 0.3-1.1 0.8-1.5 1.3-0.1 0.2-0.2 1.6-0.3 1.9 0.7 0.8 1.6 1.8 2.7 2l1.5 7.5z"/>
				<path id="&lt;Compound Path&gt;" class="s8" d="m285.4 1057c-2.9-1.5-5.8-2.8-8.6-4.3-5.9-3.3-9.7-10.2-6.1-16.7 0.5-0.9 3.5-3.7 4.6-4.6l1.1 3.2c-0.6 0.4-1.1 0.8-1.4 1.4-5.3 9.6 17.4 12.8 19.3 24.8 0.9 6.2 1.8 6.6-1.6 12.5l-0.2 0.5c-3.4-7 3.1-11.1-7.1-16.8z"/>
				<path id="&lt;Compound Path&gt;" class="s8" d="m326.1 1046.1l-17.8 34.8-2.2-7 11.3-22.3c2.4-4.7 3.5-8.6-2.5-11l-2.7-7.4 7 3.6c1.9 1 2.7 3.5 3 5.5 0.3 2.8-0.5 5.4-0.7 8.1 0.1 0.1 0.2-0.2 0.2-0.2 2-4 1.2-9.3 3.4-13.4q0.9-1.8 2.1-3.2l1.3 2.5-0.4 5.3 2.4 1.2 2.3 7z"/>
				<path id="&lt;Compound Path&gt;" fill-rule="evenodd" class="s8" d="m360.2 1060.9l-13.8 35.7c-1.9-2.7-0.8-17.5-5.5-19.4-1.1 1.7-6.2 1.6-8 0.9-3.8-1.4-5.9-4.7-4.3-8.7 2.1-5.4 8.1-4.9 12.2-2.2 2.5-8.6-7-10.1-8.4-13.5-1.4-3.7-2.7-7.3-4.1-11l35.7 14 3 6.9zm-4.9-1.7l-13.7-5.4c2.3 3.4 4.9 8.3 4.3 12.6-0.2 2.4-0.2 4.7-1.4 6.8 1.3 1.8 2.1 4.8 2.7 7z"/>
				<path id="&lt;Compound Path&gt;" class="s8" d="m408.5 1055.2c-6.8-1.3-10.2 1.2-14.3 6.2l0.7 2.9 3.8 0.7 4.3 6.4-7.6-1.5-7.2 37.5-4.3-6 6.3-32.5-5.1-0.9-4.3-6.4 9.7 1.9c-0.9-1.6-2.1-2.8-1.8-4.7 1.4-7.3 10.6-11 17.1-9.7 9.7 1.9 15.2 8.2 21 15.2l0.8 4.9c-5.7-6-10.5-12.4-19.1-14z"/>
				<path id="&lt;Compound Path&gt;" fill-rule="evenodd" class="s8" d="m430.8 1074.3l-3.5 38.5c-5.7-3.2-3.2-17.8-21.1-20.7l-4.9-7.8c6.9-3.8 16.2-8.9 23.7-10.5l-23.7-2.2-4.7-5.8 37.5 3.4 4.7 5.8zm-6 8c-4.6 1-8.8 2.9-13 5 4.4 2.4 9.1 6.4 11.6 10.8z"/>
				<path id="&lt;Compound Path&gt;" class="s8" d="m473.1 1073.3l2.1 37.3-5.8-4.7-1-22.5c-0.2-3-4.1-7-6.7-7.9l-2.3 0.8-0.9 1.3c2.8 1.4 5.7 4.2 5.8 7.6 0.2 2.8-2.5 5.1-5.2 5.3-2.4 0.1-4.6-1.2-5.8-3.4-1.2 2-2.9 4-5.5 4.1-3 0.2-6-2.1-6.2-5.1-0.1-2.7 3.1-7.7 5.8-8.6-3.5-3.6-4.3-2.7-9.6-2.4l-5.7-5.1 9.7-0.5c3.9-0.2 7.5 2.1 9.1 5.6 1.4-2.4 5.4-6.3 8.2-6.5 6-0.2 9.3 9.3 11.4 13.3-1.6-5.9-2.8-11.8-3.1-17.9l-0.2-3.2c4.8 3.8 4.3 6.8 7.8 6.8l5.6 5.3z"/>
				<path id="&lt;Compound Path&gt;" fill-rule="evenodd" class="s8" d="m475.9 1112c-1.7-3.8-11-6.2-14.8-5.7l-5.6-7.5c4.1-3.8 13-12 18.2-12.7q1.2-0.2 2.3-0.9l4 27.8zm-3.8-20c-1.9 1.3-7.5 5.7-8.2 7.8 3 0 7.9 4 10.1 5.9z"/>
				<path id="&lt;Compound Path&gt;" class="s8" d="m496.7 1052.1c-6.8 1.2-9.2 4.7-11.3 10.9l1.6 2.5 3.9-0.7 6.2 4.5-7.6 1.3 6.3 37.5-6.2-4-5.4-32.6-5 0.8-6.3-4.4 9.8-1.7c-1.4-1.1-3-1.9-3.3-3.8-1.2-7.2 6.1-13.9 12.7-15.1 9.7-1.6 17 2.4 24.9 6.9l2.4 4.4c-7.4-3.6-14.1-8-22.7-6.5z"/>
				<path id="&lt;Compound Path&gt;" fill-rule="evenodd" class="s8" d="m524 1062.2l10.2 37.4c-6.5-1.1-9.1-15.7-26.9-12.1l-7.3-5.6c5-5.9 12-14 18.5-18.1l-23 6.2-6.4-3.8 36.4-10 6.4 3.8zm-2.9 9.7c-3.8 2.5-7.2 5.8-10.4 9.2 5 0.7 10.8 2.8 14.6 6.1z"/>
				<path id="&lt;Compound Path&gt;" class="s8" d="m538.7 1057.1l5.9 13.6c2.2-8.6 4.4-11.3 10.4-17.4l9.2 2c-0.9 6.6-0.3 12.9 2.3 19.1 1.5 3.6 3.8 6.9 6 9.9l-4.7-0.2c-3.3-4.4-6.5-8.7-8.7-13.8-1-2.4-1.6-5.1-2.1-7.7-5 4.7-7.4 11.9-7.3 18.8l-8.1-3.1-8.1-19-3.7 1.6-7-2.9 35.8-15.4 7.2 2.8z"/>
				<path id="&lt;Compound Path&gt;" class="s8" d="m579.6 1036.6c-3.2 1.9-5 4.9-3 8.4 3.4 6.2 8.8 11 12.3 17.2 2.5 4.6 0.4 13.7-4.3 16.3-1.1 0.6-2.7 0.7-3.4-0.5-0.9-1.8 6.4-5.3 2.2-12.8-2.5-4.4-7.3-7.2-9.8-11.8-2.5-4.4-1.9-7.7-1.3-12.3l-8.3 4.7-7.5-2.1 18.4-10.4 7.6 1.9c-0.9 0.5-2 0.9-2.9 1.4z"/>
				<path id="&lt;Compound Path&gt;" class="s8" d="m590.3 1029.6l21.5 32.7-7.2-1.5-13.8-20.9c-2.9-4.5-5.7-7.3-10.8-3.2l-7.6-1.3 6.5-4.4c1.8-1.2 4.4-0.6 6.3 0.1 2.5 1.1 4.4 3.1 6.6 4.6 0.1 0-0.1-0.2-0.1-0.3-2.4-3.7-7.4-5.7-10-9.6-0.7-1-1.3-2.2-1.7-3.4l2.8 0.1 4.4 3 2.3-1.5 7.2 1.4z"/>
				<path id="&lt;Compound Path&gt;" class="s8" d="m623 1004.5l24.4 29.5-7.3-0.2-13.1-15.8c-0.9-1.1-4.3-1.6-5.6-0.5-2.5 2.1 0.5 4.3 2.1 5.6l-2.2 3.6c-0.1-0.5-0.2-1-0.6-1.4-2.1-2.6-7-1.4-9.2 0.4-2.6 2.1-3.1 5.9-1 8.5 1.1 1.4 3.1 1.5 4.6 0.9-0.5-0.3-0.9-0.6-1.3-1.1-1.6-2-1-5 0.9-6.5 2.8-2.5 7 0 9 2.4 1.6 1.9-1 6-2.4 7.2-4.9 4-11.6 4.2-15.8-0.9-3.3-3.9-4.3-10.6 0-14.2 2.2-1.8 5.2-3 8-2.4 0.3-1.6 1-4.8 2.3-5.9 3.1-2.6 3.3-1.3 6.2-1.1 0.2 0.1 1.2 0.9 1.4 0.8 0.1-0.1-0.3-0.3-0.3-0.4l-4.2-5-22.5 18.8-8-0.4 32.4-27.1 8 0.4z"/>
				<path id="&lt;Compound Path&gt;" fill-rule="evenodd" class="s8" d="m647.7 978.1l28.6 25.8c-11.6 0.6-16.6-5.3-26.9 5.1l-9-0.3c-0.2-4.7 0-9.7 0.6-14.3-9.9 3.6-7.5 6.5-20.9 6.4l24.6-27.5 7.9-0.6zm8.5 36.1c-1.8-1.6-1.9-4.6-0.3-6.5 1.6-1.7 4.8-2.4 6.8-0.7 1.8 1.6 1.9 4.7 0.2 6.5-1.6 1.8-4.7 2.5-6.7 0.7zm-12.1-32l-7.2 8.1c3.6-0.7 7.4-0.7 11.1-0.6 0.2 4.1-0.1 8 0.4 12.2 4.4-2.5 9.4-3.6 14.4-2.9z"/>
			</g>
			<g id="&lt;Group&gt;">
				<path id="&lt;Path&gt;" class="s9" d="m447.9 315.8c2.1 7.5 4 14.8 6.2 22.3 0.4 1.3 1.1 2.6 0.8 4.2-0.9 4.9-3.4 8.3-5.3 12.3 1.4-2.7 2.7-5.5 4-8.1-1.3 3.5-3.1 6.3-4.6 9.5 1.3-2.7 2.7-5.4 4-8-3.3 8.7-8.6 13.8-13.9 18.2-4.9 3.9-14.4 9.4-19.8 11-1.8 0.5-1.6-0.9-3.4-0.9-1.4-2.1-3-4.9-3.7-8.8v-4.9c0 3.1 3.5 5.3 5.9 6.2 4.9 0.9 13.9-5.7 18.8-7.5 6.2-2.2 11.1-7.7 16.1-13.3-1.3 2.6-2.7 5.3-4 8 1.5-3.1 3-6 4.4-9.1-1.3 2.8-2.7 5.4-4 8.2 1.4-3.5 3.1-6.4 4.7-9.6-1.4 2.7-2.7 5.3-4 8 0.4-1.2 1-2.7 0.6-4.2-2.6-8.3-4.7-16.5-7-24.8z"/>
				<path id="&lt;Path&gt;" class="s9" d="m450.8 353.2c4 4.2 8.9 4.5 12.5 10.3 0.2 0.3 0.3 1.1 0.1 1.4-1.3 3.7-2.4 7.3-4.1 10.2 1.1-2.8 2.3-5.7 3.4-8.6-1.5 3.7-2.9 7.6-4.6 11.1-7.5 7.7-15.9 11.2-24.5 15.1-3.9 1.7-7.7 3.3-11.5 4.2-5.3 1.2-21.4 4.7-25.2 3.7l-15.7-14c3.4 5.2 26.6 8.4 40.8 2.1 5-2.2 10.1-3.2 15.2-5.3 8.3-3.5 16.3-7.3 23.8-14.3 0.7-0.5 1.1-1.7 1.7-2.6-1.1 2.9-2.3 5.8-3.4 8.6 1.3-3.4 2.3-7.4 4.2-10.2q-1.8 4.5-3.6 8.8c-2.8-6.9-8.8-6.6-12.8-11.2z"/>
				<path id="&lt;Path&gt;" class="s9" d="m483.9 309c-0.1 6.2 1.8 11.4 3.3 16.8-0.6 6-1.3 12.2-3.9 16.8-2.5 4.3-4.8 7.7-7.6 10.8-3.7 4-7.4 7.3-11.7 8-0.7 0.1-1.5 1.1-2.1-1.9l4.9-7.2c0.2 0.5 0.4 1.5 0.6 1.5 5.3 1 10.3-4.4 14.8-9.3q-2 2.7-3.8 5.5c2.3-4.7 3.5-10.8 3.6-17 0.1-1.6-0.7-3.4-1.3-4.9-1.2-3.6-1.6-7.8-1.8-11.9z"/>
				<path id="&lt;Path&gt;" class="s9" d="m500.2 341.9c-4.2 1.8-8.6 4.1-11.8 9.7-2.7 4.7-4.8 9.7-7.5 14.3-2.5 4.4-5.2 7.7-8.4 10.7-4.8 4.5-9.9 6.2-15.2 6.9l4.2-8.6c7.8-0.5 15.1-5.2 21.3-13.9 3.8-5.4 6.4-12 9.8-18 3.2-5.7 7.5-7.9 11.8-9.7z"/>
				<path id="&lt;Path&gt;" class="s9" d="m515.8 344.6c-8.1 17-17.6 31.7-30 40.5-11.4 7.9-22.6 11.7-34.4 11.1l5-7.2c17.7 0 36.1-7.3 49.8-27.2-0.4 0.5-0.9 0.9-1.3 1.4 2.2-3.5 4.2-7.2 5.8-11.4z"/>
				<path id="&lt;Path&gt;" class="s9" d="m452.7 386.7c1.5 2.2 3.3 3.6 4.6 6.3-0.6 4.5-3.2 7.9-5.1 11.7-3.1 1.7-6.3 2.4-9.5 3.3-1.1-2.5-0.5-5.9 0.6-8 1.9-3.8 3.2-7.8 5.6-11 1.6-2.1 3.5-2.4 5.2-3.6-2.4 6.4-5.6 10.9-9.2 15.6-6.9 9.2-13.8 16.6-21.5 22.8-11.4 9.1-24.3 11-36.4 6.9l-19.2-9c10.5 3.4 44.7 3.3 54.8-3.1 11.7-7.5 22-19.6 31.5-33.2-1.4 3-2.7 6.2-4.5 8.6-1.5 1.8-3.4 1.7-4.9 3.5-0.6 0.7-1 1.7-1.4 2.5 1.3-2.7 2.6-5.3 3.9-8-0.8 2-1.3 5.2-0.3 7.3 3.3-1.2 6.8-1 9.9-3.9-1.3 2.6-2.7 5.3-4.1 8 0.1-0.6 0.5-1.3 0.4-1.7-1.2-3-3.1-4.1-4.6-6.3z"/>
				<g id="&lt;Group&gt;">
					<path id="&lt;Path&gt;" class="s9" d="m436.4 171.2l5.6-12.6c0 0-1.9 133 0.6 139.9 2.5 6.8 10.3 1.7 14.2 0 2.4-1.1 4.1-4.2 5.8-7.3q-1.8 3.9-3.6 7.8c1.6-3.3 3.1-6.8 4.8-10.1-1.3 2.7-2.6 5.4-3.9 8.1 0.5-1 0.8-2.1 1.1-3.2 1.4-6.5 2.5-13.1 5.9-17.5-2.3 5.3-4.5 11-7.9 14.4-3.7 3.6-9 2.5-11.1-4.3-1.1-8.9 1.9-18.1 5.6-23.8-1.2 2.5-2.4 5.1-3.7 7.6 2.5-4.9 4.5-10.6 7.9-14.3 3.3-3.6 6.9-5.4 10.4-8.3l-4.3 8.6c-4.3 4.1-9.7 5.7-13.1 12.5 1.1-2.6 2.4-5.1 3.6-7.7-1.5 3.1-3 6.2-4.5 9.2 1.3-2.5 2.5-5.1 3.7-7.6-0.8 4.9-2.4 10-1.3 15.1 0.7 3.6 2.7 5.3 4.9 6 3.5 1.3 6.9-1.4 9.2-5.8-1.4 2.7-2.7 5.4-3.9 8.1 1.3-3.8 3-7 4.8-10.2-0.8 3-1.2 6.3-2 9.4-1.4 4.8-3.6 8.4-5.6 12.3 1.3-2.6 2.6-5.3 3.8-7.9-3.2 6.4-5.9 14.8-10.8 17.4-3.8 2-10.3 7.6-14.7 0.1-2.9-4.8-1.5-135.9-1.5-135.9z"/>
					<path id="&lt;Path&gt;" class="s9" d="m408.2 268.1c0.2 15.5 0.1 31.1 0.8 46.6 1.5 3.7 4.6 4.6 7.1 3.8 1.4-0.4 2.7-1.3 3.8-3.1-1.3 2.7-2.6 5.3-3.9 7.9 1.7-3.4 3.4-6.8 5.2-10.2q-1.9 3.8-3.7 7.7c1.9-4.1 3.7-8.3 6.2-11.5-1.3 2.5-2.6 5.1-3.9 7.5 2.6-4.3 4.4-10.3 7.7-13.5q-1.8 3.5-3.6 7.1c1.8-3.5 3.4-7.2 5.4-10.5-1.7 5.2-3.9 9.6-6.3 13.7 1.3-2.6 2.6-5.1 3.8-7.6-1.4 4-3.3 7.5-5.2 11.1 1.3-2.6 2.6-5 3.9-7.6-0.6 3.6-2.2 6.8-2 10.7 3.1 0.3 6.8 0.6 8.8-4.4-1.4 2.6-2.6 5.1-4 7.7 1.4-4.3 2.7-10.8 0.8-15.3-2-1.1-4.4-1-6.1 1.3 1.6-3.1 2.9-6.3 4.8-9 1.3-1.8 3.1-2 4.6-3.6 2.5-2.5 4.5-5.7 6.6-8.9-1.2 2.4-2.5 4.8-3.6 7.3q0.1-0.4 0.3-0.8l4.2-8.6c-4.3 10.4-9.7 19.5-16.9 23.6 2-6.5 5.8-13 10.3-9.9 2 4.4 0.7 10.2-0.6 14.5-1.7 5.5-3.8 10.6-7 13.6-1.9 1.8-4.3 1.3-6.5 1.2 0.7-8.5 3.7-15.5 7.1-21.3-1.4 2.6-2.7 5.1-4 7.7 1.7-4.3 3.7-8.1 5.8-11.9-1.4 2.7-2.7 5.3-4 7.9q0.4-1.5 1-2.8c-0.4 0.7-0.8 1.3-1.2 1.9q1.8-3.6 3.6-7.1c-2.2 5.1-5 9.2-7.7 13.5 1.3-2.5 2.6-5 3.9-7.5-2 4-3.7 8.3-6.2 11.5q1.8-3.9 3.7-7.7c-1.7 3.5-3 7.5-5.2 10.2 1.3-2.6 2.6-5.2 3.9-7.9-1.9 3.5-3.2 8.1-5.7 10.4-3 2.6-6.5 1.7-9.2-1.6-1.1-15.6-0.7-31.7-0.9-47.4z"/>
				</g>
				<path id="&lt;Path&gt;" class="s9" d="m464.3 302.3c3.5 7.2 7.1 14.3 10.2 22.1-2.6 17.7-14.6 23.8-23.9 26.5l4.2-8.5c6.2-1.9 12.4-5.3 17.9-10.8-1.2 2.6-2.4 5.2-3.7 7.6 0.8-1.8 1.7-4.1 1.2-6-2.8-8.5-6.6-15.1-10.1-22.2z"/>
			</g>
			<g id="&lt;Group&gt;">
				<path id="&lt;Path&gt;" class="s2" d="m208.6 534.3l66.6 69-88.1-52.4"/>
				<path id="&lt;Path&gt;" class="s2" d="m255 523.8l20.2 79.5-42.8-75.2"/>
				<path id="&lt;Path&gt;" class="s2" d="m277.7 521.6l0.5 80.7"/>
				<path id="&lt;Path&gt;" class="s2" d="m279.7 602.6l21.9-78.3"/>
				<path id="&lt;Path&gt;" class="s2" d="m323.4 528.9l-42.7 73.4"/>
				<path id="&lt;Path&gt;" class="s2" d="m345.9 536.6l-63.4 64.4"/>
				<path id="&lt;Path&gt;" class="s2" d="m370 553l-91.8 51.1"/>
			</g>
		</g>
	</g>
</svg>